<?xml version="1.0" standalone="no"?><!DOCTYPE svg PUBLIC "-//W3C//DTD SVG 1.1//EN" "http://www.w3.org/Graphics/SVG/1.1/DTD/svg11.dtd"><svg t="1547607665616" class="icon" style="" viewBox="0 0 1024 1024" version="1.1" xmlns="http://www.w3.org/2000/svg" p-id="8029" xmlns:xlink="http://www.w3.org/1999/xlink" width="64" height="64"><defs><style type="text/css"></style></defs><path d="M157.184 526.208l270.72 270.592a20.224 20.224 0 0 0 28.544 0l270.72-270.592c79.744-79.744 87.808-210.56 10.496-292.608a205.824 205.824 0 0 0-284.672-14.72 16.256 16.256 0 0 1-21.632 0 205.824 205.824 0 0 0-284.672 14.592c-77.184 82.176-69.12 212.992 10.496 292.736z" fill="#FFFFFF" p-id="8030"></path><path d="M442.24 821.888a39.296 39.296 0 0 1-27.904-11.52L143.616 539.776c-88.448-88.448-93.44-231.808-10.88-319.36a224.384 224.384 0 0 1 309.376-17.536 224.384 224.384 0 0 1 309.376 17.536c82.432 87.552 77.568 230.4-10.88 319.36L470.016 810.368a39.296 39.296 0 0 1-27.776 11.52zM296.704 187.776a186.368 186.368 0 0 0-136.064 59.008c-68.352 72.576-64 192 10.112 265.856l270.72 270.592a1.152 1.152 0 0 0 1.408 0L713.6 512c73.984-73.984 78.464-193.28 10.112-265.856a186.112 186.112 0 0 0-258.048-12.8 35.456 35.456 0 0 1-46.848 0 185.6 185.6 0 0 0-122.112-45.568z" fill="#501192" p-id="8031"></path><path d="M587.648 722.816l146.56 146.432a10.88 10.88 0 0 0 15.488 0L896 722.816a115.2 115.2 0 0 0 5.632-158.464 111.488 111.488 0 0 0-153.6-7.936 8.832 8.832 0 0 1-11.776 0 111.488 111.488 0 0 0-153.6 7.936 115.2 115.2 0 0 0 4.992 158.464z" fill="#DED5EB" p-id="8032"></path><path d="M742.4 891.776a29.952 29.952 0 0 1-21.76-8.576L574.08 736.384a134.016 134.016 0 0 1-6.144-185.216A130.304 130.304 0 0 1 742.4 536.448a130.304 130.304 0 0 1 173.952 14.72 134.016 134.016 0 0 1-6.144 185.216L763.264 883.2a29.952 29.952 0 0 1-20.864 8.576z m-79.232-343.424a92.16 92.16 0 0 0-67.2 29.184A95.36 95.36 0 0 0 601.6 709.248l140.8 140.8 140.8-140.8a95.36 95.36 0 0 0 5.248-131.712 92.032 92.032 0 0 0-128-6.528 28.032 28.032 0 0 1-36.864 0 91.776 91.776 0 0 0-60.416-22.656z" fill="#501192" p-id="8033"></path></svg>